<mxfile host="app.diagrams.net" modified="2024-02-20T15:28:39.286Z" agent="Mozilla/5.0 (Windows NT 10.0; Win64; x64) AppleWebKit/537.36 (KHTML, like Gecko) Chrome/121.0.0.0 Safari/537.36 Edg/121.0.0.0" etag="vKHC22osgaW3YCFJamQK" version="23.1.5" type="device">
  <diagram name="Page-1" id="RoNZ5VjNP_2BlZQeQxXh">
    <mxGraphModel dx="1386" dy="905" grid="1" gridSize="10" guides="1" tooltips="1" connect="1" arrows="1" fold="1" page="1" pageScale="1" pageWidth="850" pageHeight="1100" math="0" shadow="0">
      <root>
        <mxCell id="0" />
        <mxCell id="1" parent="0" />
        <mxCell id="WelR9dYAvQkxEHdVHG43-17" style="edgeStyle=orthogonalEdgeStyle;rounded=0;orthogonalLoop=1;jettySize=auto;html=1;entryX=0.363;entryY=-0.011;entryDx=0;entryDy=0;entryPerimeter=0;" edge="1" parent="1" source="WelR9dYAvQkxEHdVHG43-7" target="WelR9dYAvQkxEHdVHG43-12">
          <mxGeometry relative="1" as="geometry">
            <mxPoint x="330" y="250" as="targetPoint" />
          </mxGeometry>
        </mxCell>
        <mxCell id="WelR9dYAvQkxEHdVHG43-7" value="" style="rounded=1;whiteSpace=wrap;html=1;" vertex="1" parent="1">
          <mxGeometry x="30" y="220" width="120" height="60" as="geometry" />
        </mxCell>
        <mxCell id="WelR9dYAvQkxEHdVHG43-8" value="Turbidity Sensor" style="rounded=1;whiteSpace=wrap;html=1;" vertex="1" parent="1">
          <mxGeometry x="30" y="310" width="120" height="60" as="geometry" />
        </mxCell>
        <mxCell id="WelR9dYAvQkxEHdVHG43-19" style="edgeStyle=orthogonalEdgeStyle;rounded=0;orthogonalLoop=1;jettySize=auto;html=1;" edge="1" parent="1" source="WelR9dYAvQkxEHdVHG43-9" target="WelR9dYAvQkxEHdVHG43-12">
          <mxGeometry relative="1" as="geometry" />
        </mxCell>
        <mxCell id="WelR9dYAvQkxEHdVHG43-9" value="Water Level&amp;nbsp; Sensor" style="rounded=1;whiteSpace=wrap;html=1;" vertex="1" parent="1">
          <mxGeometry x="30" y="400" width="120" height="60" as="geometry" />
        </mxCell>
        <mxCell id="WelR9dYAvQkxEHdVHG43-20" style="edgeStyle=orthogonalEdgeStyle;rounded=0;orthogonalLoop=1;jettySize=auto;html=1;entryX=0;entryY=0.75;entryDx=0;entryDy=0;" edge="1" parent="1" source="WelR9dYAvQkxEHdVHG43-10" target="WelR9dYAvQkxEHdVHG43-12">
          <mxGeometry relative="1" as="geometry" />
        </mxCell>
        <mxCell id="WelR9dYAvQkxEHdVHG43-10" value="Temperature &amp;amp; Humidity Sensor" style="rounded=1;whiteSpace=wrap;html=1;" vertex="1" parent="1">
          <mxGeometry x="30" y="500" width="120" height="60" as="geometry" />
        </mxCell>
        <mxCell id="WelR9dYAvQkxEHdVHG43-11" value="Ultrasonic Sensor" style="rounded=1;whiteSpace=wrap;html=1;" vertex="1" parent="1">
          <mxGeometry x="30" y="600" width="120" height="60" as="geometry" />
        </mxCell>
        <mxCell id="WelR9dYAvQkxEHdVHG43-22" style="edgeStyle=orthogonalEdgeStyle;rounded=0;orthogonalLoop=1;jettySize=auto;html=1;" edge="1" parent="1" source="WelR9dYAvQkxEHdVHG43-12" target="WelR9dYAvQkxEHdVHG43-13">
          <mxGeometry relative="1" as="geometry" />
        </mxCell>
        <mxCell id="WelR9dYAvQkxEHdVHG43-12" value="&lt;font style=&quot;font-size: 14px;&quot;&gt;BREAD BOARD&lt;/font&gt;" style="rounded=1;whiteSpace=wrap;html=1;" vertex="1" parent="1">
          <mxGeometry x="260" y="330" width="190" height="180" as="geometry" />
        </mxCell>
        <mxCell id="WelR9dYAvQkxEHdVHG43-13" value="&lt;font style=&quot;font-size: 18px;&quot;&gt;ARDUINO UNO&lt;/font&gt;" style="rounded=1;whiteSpace=wrap;html=1;" vertex="1" parent="1">
          <mxGeometry x="540" y="360" width="180" height="120" as="geometry" />
        </mxCell>
        <mxCell id="WelR9dYAvQkxEHdVHG43-16" style="edgeStyle=orthogonalEdgeStyle;rounded=0;orthogonalLoop=1;jettySize=auto;html=1;entryX=0.5;entryY=0;entryDx=0;entryDy=0;" edge="1" parent="1" source="WelR9dYAvQkxEHdVHG43-6" target="WelR9dYAvQkxEHdVHG43-12">
          <mxGeometry relative="1" as="geometry">
            <mxPoint x="360" y="150" as="targetPoint" />
          </mxGeometry>
        </mxCell>
        <object label="" id="WelR9dYAvQkxEHdVHG43-6">
          <mxCell style="rounded=1;whiteSpace=wrap;html=1;" vertex="1" parent="1">
            <mxGeometry x="30" y="120" width="120" height="60" as="geometry" />
          </mxCell>
        </object>
        <mxCell id="WelR9dYAvQkxEHdVHG43-14" value="&lt;font style=&quot;font-size: 14px;&quot;&gt;pH Sensor&lt;/font&gt;" style="text;strokeColor=none;align=center;fillColor=none;html=1;verticalAlign=middle;whiteSpace=wrap;rounded=0;" vertex="1" parent="1">
          <mxGeometry x="50" y="130" width="70" height="30" as="geometry" />
        </mxCell>
        <mxCell id="WelR9dYAvQkxEHdVHG43-15" value="TDS Sensor" style="text;strokeColor=none;align=center;fillColor=none;html=1;verticalAlign=middle;whiteSpace=wrap;rounded=0;" vertex="1" parent="1">
          <mxGeometry x="40" y="235" width="100" height="30" as="geometry" />
        </mxCell>
        <mxCell id="WelR9dYAvQkxEHdVHG43-18" style="edgeStyle=orthogonalEdgeStyle;rounded=0;orthogonalLoop=1;jettySize=auto;html=1;entryX=0.005;entryY=0.1;entryDx=0;entryDy=0;entryPerimeter=0;" edge="1" parent="1" source="WelR9dYAvQkxEHdVHG43-8" target="WelR9dYAvQkxEHdVHG43-12">
          <mxGeometry relative="1" as="geometry" />
        </mxCell>
        <mxCell id="WelR9dYAvQkxEHdVHG43-21" style="edgeStyle=orthogonalEdgeStyle;rounded=0;orthogonalLoop=1;jettySize=auto;html=1;entryX=0.326;entryY=0.994;entryDx=0;entryDy=0;entryPerimeter=0;" edge="1" parent="1" source="WelR9dYAvQkxEHdVHG43-11" target="WelR9dYAvQkxEHdVHG43-12">
          <mxGeometry relative="1" as="geometry" />
        </mxCell>
        <mxCell id="WelR9dYAvQkxEHdVHG43-24" style="edgeStyle=orthogonalEdgeStyle;rounded=0;orthogonalLoop=1;jettySize=auto;html=1;entryX=0.461;entryY=0.008;entryDx=0;entryDy=0;entryPerimeter=0;" edge="1" parent="1" target="WelR9dYAvQkxEHdVHG43-13">
          <mxGeometry relative="1" as="geometry">
            <mxPoint x="620" y="210" as="sourcePoint" />
          </mxGeometry>
        </mxCell>
        <mxCell id="WelR9dYAvQkxEHdVHG43-25" value="&lt;br&gt;Power Supply" style="shape=cylinder3;whiteSpace=wrap;html=1;boundedLbl=1;backgroundOutline=1;size=15;" vertex="1" parent="1">
          <mxGeometry x="570" y="100" width="100" height="120" as="geometry" />
        </mxCell>
        <mxCell id="WelR9dYAvQkxEHdVHG43-26" value="&lt;font style=&quot;font-size: 24px;&quot;&gt;DISPLAY&lt;/font&gt;" style="rounded=1;whiteSpace=wrap;html=1;" vertex="1" parent="1">
          <mxGeometry x="370" y="710" width="420" height="80" as="geometry" />
        </mxCell>
        <mxCell id="WelR9dYAvQkxEHdVHG43-28" style="edgeStyle=orthogonalEdgeStyle;rounded=0;orthogonalLoop=1;jettySize=auto;html=1;" edge="1" parent="1" source="WelR9dYAvQkxEHdVHG43-13">
          <mxGeometry relative="1" as="geometry">
            <mxPoint x="630" y="710" as="targetPoint" />
            <Array as="points">
              <mxPoint x="630" y="661" />
            </Array>
          </mxGeometry>
        </mxCell>
      </root>
    </mxGraphModel>
  </diagram>
</mxfile>
